<svg xmlns="http://www.w3.org/2000/svg" width="200mm" height="230mm" viewBox="0 0 566.93 651.97"><defs><style>.cls-2{fill:#ff6200}</style></defs><path fill="none" d="M0 0h566.93v651.97H0z" id="BG"/><g id="Identifier"><path class="cls-2" d="M133.41 535.71a11.06 11.06 0 0 1-8 3.44c-7.79 0-12.07-6.15-12.07-14.89 0-10.15 5.81-16 12.74-16a10 10 0 0 1 6.77 2.48v-14.45c0-.63.28-.91 1-.91h4.85c.67 0 1 .28 1 .91v34.9c0 1.41.39 2 1.75 2.15.62 0 .84.28.84 1v2.76a1.17 1.17 0 0 1-1 1.3 9.41 9.41 0 0 1-2.87.39 5.15 5.15 0 0 1-5.01-3.08zm-.51-19a7.35 7.35 0 0 0-5.64-2.65c-4.23 0-6.88 3.49-6.88 9.87 0 5.13 1.86 9.36 6.54 9.36a6.55 6.55 0 0 0 4.46-1.58c1.12-1.13 1.52-2.82 1.52-6zm13.54 7.55c0-10.37 5.24-16.07 14.32-16.07 8.52 0 13.31 5.47 13.31 14.83 0 10.38-5.24 16.08-14.32 16.08-8.52.05-13.31-5.42-13.31-14.79zm20.64-.84c0-5.36-1.75-9.36-6.49-9.36-4.51 0-7.16 3.32-7.16 9.81 0 5.36 1.75 9.36 6.49 9.36 4.51.05 7.16-3.23 7.16-9.76zm50.15 15.06c0 4.85-1.07 8.46-3.21 10.71s-5.76 3.55-10.49 3.55a30.7 30.7 0 0 1-8-1.07c-.67-.17-.9-.56-.73-1.35l.68-3.27c.17-.79.45-1 1.3-.85a33 33 0 0 0 6.22.8c3.1 0 5.08-.79 6-1.92s1.52-3.1 1.52-6v-3a11.29 11.29 0 0 1-8.17 3.16 10.1 10.1 0 0 1-7.67-3.11c-2-2.08-2.65-5.13-2.65-9.19v-17.23c0-.62.28-.9.95-.9h4.85c.68 0 1 .28 1 .9v14.89c0 4.11.23 5.75 1.19 6.88a5.28 5.28 0 0 0 4.17 1.52 8.58 8.58 0 0 0 4.63-1.24 3.78 3.78 0 0 0 1.57-3 60.36 60.36 0 0 0 .17-6.31v-12.74c0-.62.29-.9 1-.9h4.79c.68 0 1 .28 1 .9zm6.09-14.22c0-10.37 5.25-16.07 14.33-16.07 8.51 0 13.31 5.47 13.31 14.83 0 10.38-5.25 16.08-14.33 16.08-8.51.05-13.31-5.42-13.31-14.79zm20.64-.84c0-5.36-1.74-9.36-6.48-9.36-4.51 0-7.16 3.32-7.16 9.81 0 5.36 1.74 9.36 6.48 9.36 4.51.05 7.2-3.23 7.2-9.76zm23.24 15.68a10.22 10.22 0 0 1-7.73-3c-1.86-2.09-2.65-4.85-2.65-9.25v-17.14c0-.62.29-.9 1-.9h4.85c.68 0 1 .28 1 .9v14.94c0 4.12.23 5.64 1.19 6.88.9 1 2.36 1.47 4.28 1.47a8.17 8.17 0 0 0 4.57-1.3c1-.67 1.41-1.58 1.58-3.33.11-1.4.11-3.77.11-6.31v-12.35c0-.62.28-.9 1-.9h4.79c.68 0 1 .28 1 .9v17.65c0 4.74.34 9.47.34 10.32 0 .62-.28.9-1 .9h-4.34c-.73 0-1-.22-1.07-.9l-.23-2.14a11.55 11.55 0 0 1-8.69 3.61zm23.8-.57c-.67 0-1-.28-1-.9V520c0-4.74-.28-9.48-.28-10.32 0-.62.28-.9 1-.9h4.34c.74 0 1 .28 1.07.84.23 1.41.4 4 .46 5.53 1.91-4.06 4.68-6.88 8.29-6.88 1.18 0 1.63.28 1.63 1.18v3.84c0 .73-.28 1-1 1.07a9.33 9.33 0 0 0-6.93 4.28c-1.41 2.32-1.81 4.69-1.81 10.72v8.29c0 .62-.28.9-1 .9zm42.13-29.77h6.94c.62 0 .9.28.9.95v3.44c0 .68-.28 1-.9 1h-6.94v14.5c0 1.86.23 3.1.9 3.83a3.45 3.45 0 0 0 2.77 1 15.23 15.23 0 0 0 3.61-.62c.79-.23 1.12-.06 1.35.68l.79 2.76c.23.85 0 1.18-.73 1.58a16.29 16.29 0 0 1-6.38 1.3c-2.87 0-5.07-.68-6.54-2-1.69-1.58-2.54-4.23-2.54-8v-15h-3.83c-.62 0-.9-.28-.9-1v-3.44c0-.67.28-.95.9-.95h3.83V501c0-.62.29-.91 1-.91h4.85c.68 0 1 .29 1 .91zm15.79 29.77c-.67 0-.95-.28-.95-.9v-41.34c0-.63.28-.91.95-.91h4.85c.68 0 1 .28 1 .91v15.17a11.4 11.4 0 0 1 8.12-3.22 10.39 10.39 0 0 1 7.84 3.05c1.92 2.08 2.71 4.85 2.71 9.25v17.14c0 .62-.28.9-1 .9h-4.8c-.68 0-1-.28-1-.9v-14.94c0-4.12-.22-5.64-1.29-6.88-.85-1-2.37-1.47-4.35-1.47a8.17 8.17 0 0 0-4.57 1.3c-1 .67-1.41 1.57-1.57 3.32-.12 1.41-.12 3.78-.12 6.32v12.35c0 .62-.28.9-1 .9zm32.72-35.36c-.68 0-1-.34-1-1v-5.69c0-.62.34-1 1-1h5.69c.73 0 1.07.34 1.07 1v5.69c0 .62-.34 1-1.07 1zm.45 35.36c-.68 0-1-.28-1-.9v-28c0-.62.28-.9 1-.9h4.85c.67 0 1 .28 1 .9v28c0 .62-.29.9-1 .9zm20.13-26.73a11.71 11.71 0 0 1 8.57-3.61 10.46 10.46 0 0 1 7.84 3.05c1.92 2.08 2.71 4.85 2.71 9.25v17.14c0 .62-.28.9-1 .9h-4.85c-.68 0-1-.28-1-.9v-14.89c0-4.12-.22-5.64-1.3-6.88-.84-1-2.36-1.47-4.34-1.47a8.17 8.17 0 0 0-4.57 1.3 3.9 3.9 0 0 0-1.58 3.32c-.11 1.41-.11 3.78-.11 6.32v12.35c0 .62-.28.9-1 .9h-4.85c-.67 0-1-.28-1-.9V520c0-4.74-.28-9.48-.28-10.32 0-.62.28-.9 1-.9h4.29c.73 0 1 .28 1.12.84a17 17 0 0 1 .35 2.23zm44.56 27.2v-3.21a10.11 10.11 0 0 1-7.45 3.1c-7.78 0-12.12-6-12.12-14.77 0-10.16 5.8-15.91 12.74-15.91a10 10 0 0 1 7.28 3.22 8 8 0 0 1 .22-1.7c.17-.67.4-.95 1.36-.95h3c.73 0 1.13.16 1.24.78.4 1.87.45 8.24.45 12.58v16.36c0 4.85-1.07 8.46-3.21 10.71s-5.75 3.55-10.49 3.55a30.57 30.57 0 0 1-7.95-1.07c-.68-.17-.91-.56-.74-1.35l.68-3.27c.17-.79.45-1 1.3-.85a33 33 0 0 0 6.15.74c3.1 0 5.07-.79 6-1.92s1.54-3.04 1.54-6.04zm-1.58-7.5c1.12-1.13 1.58-3 1.58-6v-8.29a7 7 0 0 0-5.7-3.1c-4.23 0-6.88 3.38-6.88 9.75 0 5.13 1.8 9.25 6.48 9.25a6.65 6.65 0 0 0 4.52-1.58zM385.51 453.54H181.42a68 68 0 0 1-68-68V181.42a68 68 0 0 1 68-68h204.09a68 68 0 0 1 68 68v204.09a68 68 0 0 1-68 68.03z"/><path d="M240.52 450.52a22.12 22.12 0 0 1-3.74 3h-5.4a103.73 103.73 0 0 0-8.85-19.64s20.8-8.34 26.3-8.34c1.4 2.81 2.79 6.94 5.57 9.69-2.78 2.77-11.07 11.15-13.88 15.29zm11.1-176c0-8.33 2.78-8.33 1.38-11.07s-12.48 0-15.23 0c-6.92 1.34-19.42 5.52-19.42 8.27-1.35 4.13-1.35 13.84-1.35 15.22 1.38 4.16 1.38 8.31 2.79 12.47 4.1-4.16 5.53-5.57 8.31-6.94 1.36-1.37 16.61-12.47 18-13.84 2.73-2.78 4.13-1.41 5.52-4.16zm-40.21 76.25v6.91c0 2.75 1.37 18 1.37 22.2 1.42 4.16 1.42 8.28 2.82 12.47 1.37 2.78 2.75 5.53 2.75 8.33a10.62 10.62 0 0 0 4.18-4.16c4.14-4.17 5.54-8.36 8.32-13.89-1.42-9.66-4.18-18-4.18-20.77 0-11.09 1.4-13.88 2.76-20.8-5.57 2.69-12.43 6.87-18.02 9.66zm79-192.72c1.39 2.79 18 12.48 25 16.65 5.54 4.18 11.08 5.56 16.62 8.32a54.61 54.61 0 0 0 8.29-18c4.18 2.78 9.72 2.78 13.88 4.16 0 5.55 0 11.11 1.38 16.64 0 2.78 2.75 1.4 8.32-1.37 8.33-2.81 16.62-4.16 20.8-5.54 9.72-5.54 15.26-16.64 23.55-16.64 6.95 0 19.43 4.15 22.2 6.91 4.15 1.38 6.95 2.75 11.06 2.75s7.28-2.86 10.36-5.49q-.72-3.18-1.73-6.24c-11.07-7.13-23-14-34.94-18.74-8.32 6.92-13.88 12.47-18.05 12.47s-1.38-8.3-1.38-13.84c-4.16 0-6.88 0-11.07-1.4-2.75 9.69-4.18 22.18-11.11 25a10.57 10.57 0 0 1-5.54 1.37v-11.21c0-1.38 5.54-11.09 4.18-12.47 0 0-12.48 2.78-15.27 4.17-1.38 1.38-9.68 5.55-11.08 5.55a30.7 30.7 0 0 0-5.56-1.41c-4.15-2.76-6.91-2.76-11.08-5.53-5.54 16.63-6.92 20.78-6.92 18 0 0-19.4-12.5-26.36-20.81-18 2.78-18 5.55-33.26 11.09-5.56 5.53-13.87 12.47-19.37 20.82-2.81 5.54-5.56 8.27-8.34 13.85l13.84 5.53a123.11 123.11 0 0 0 9.72-13.84c9.72-5.51 26.34-15.23 31.88-20.8zM276.6 397.83c-1.42-2.75-5.58-4.17-8.33-5.53-2.79 0-5.57 5.53-5.57 11.09a83.62 83.62 0 0 0 2.78 16.61c0 1.36 2.79 2.78 5.54 4.14 4.16 2.78 8.32 4.21 12.48 7 0 0-4.16-12.49-5.53-19.4-1.37-4.18 1.37-9.74-1.37-13.91zm-52.74 29.11s4.21-2.78 4.21-5.56c6.92-8.29 15.26-15.21 16.61-16.62-2.75-6.93-4.16-8.29-8.31-12.46-1.38 1.36-8.3 5.53-9.7 8.33-2.81 1.37-5.54 2.76-6.91 4.13 0 2.8 1.37 4.17 2.77 7 0 2.71 1.33 9.62 1.33 15.18zm26.37-131.69c-13.86 4.16-23.56 6.94-26.37 9.69-6.89 4.2-9.66 7-16.59 11.08 0 8.34 0 8.34 1.36 12.52l1.42 16.63c2.73-4.16 11.08-12.48 15.24-18a70.69 70.69 0 0 1 22.18-16.64c1.36-5.59 2.76-9.72 2.76-15.28zM230.85 201c-2.78 4.13-2.78 8.31-2.78 12.46 0 6.91 1.36 12.46 2.78 20.79-5.56 4.15-8.32 6.93-13.88 9.67 1.38 8.37 2.79 23.62 2.79 23.62 2.77-4.15 2.77-4.15 5.53-6.95 5.56-4.15 8.29-7 15.23-12.46 1.41-2.78 2.81-1.4 6.95-4.21 1.36-1.37 2.76-2.74 2.76-4.1 0-2.81-1.4-5.57-2.76-8.34s-4.14-9.73-4.14-11.11c0-11.06 1.35-13.84 2.73-23.54-5.54-1.38-12.48-1.38-15.21 4.17zm140 224.55c-5.51 1.38-16.62 2.81-16.62 6.94-1.38 4.15 0 8.32 0 11.07 1.38 2.81 1.38 5.56 1.38 9.72v.25h10.49c2.48-3.54 4.88-6.18 6.16-10 1.33-4.08-.03-11.03-1.44-17.97zm-52.68-52.64a69.51 69.51 0 0 0 5.56 15.19c1.4 0 2.79 2.81 4.15 2.81 2.79-2.81 5.56-6.93 9.73-8.34v5.53c0 4.19 0 7 1.39 11.11 0 4.17 4.16 4.17 9.66 4.17s6.95-9.73 6.95-11.09c0 0 1.38 5.53 9.73 9.7 0 0 9.69 0 9.69-1.37 1.4-7 2.76-8.33 1.4-13.89 0 0 8.3 5.56 12.49 11.09 2.72-2.75 5.53-8.29 5.53-9.72 2.73-5.53 2.73-12.46 2.73-18-11.08-6.92-24.92-8.3-38.82-8.3-12.48.01-26.36 1.39-40.22 11.12zm23.59 62.33a7.66 7.66 0 0 0-7-4.13c-2.75 0-9.68-4.18-9.68-1.4-7 0-1.4 6.93-1.4 11.1 0 3 4 8.38 7.74 12.72h12.84a28.15 28.15 0 0 1-1.15-5.8c-1.38-4.16.02-8.28-1.38-12.48zm73.44-106.7c10.68 0 23.05 2.47 38.34 8.69v9.3c-15.22-6.13-29.19-7.46-36.94-9.7v11.1c5.55 1.38 8.31 4.17 13.85 5.54 2.07 1 14.2 7.47 23.09 12.41v9.67c-16.83-10.31-28.5-14.31-42.53-20.7-2.76 2.78-4.13 7-8.29 9.71-1.4 1.37-11.11-6.93-16.65-9.71-4.12-2.75-12.48-4.13-18-5.54-1.35 0-1.35-2.75-1.35-4.14-1.39-4.16-2.8-8.34-1.39-9.72 6.92-2.76 9.69-8.32 9.69-12.46s4.13 1.37 8.32 0c2.75-2.79 4.16-5.54 2.75-8.34 0-2.75-1.37-5.51-4.12-5.51a57.27 57.27 0 0 0-43 0c-4.19 1.35-4.19 6.88-2.8 11.06 1.41 5.54 7 2.79 11.11 0 1.35 0-1.4 4.16 1.35 8.34 2.79 5.54 8.33 6.91 8.33 8.29 0 4.18 0 4.18-1.38 6.92 0 2.81 0 5.56-2.76 7-8.32 1.38-15.24 4.13-23.58 6.91-4.14 1.39-8.29 5.56-12.48 5.56-2.76 0-5.54-5.56-6.91-6.94-2.8 0-2.8-1.4-8.33 0a374.61 374.61 0 0 0-47.12 23.58c-2.78-2.81-1.4-6.91-2.78-9.72a317.25 317.25 0 0 1 48.54-24.94c1.36-1.42 0-5.54-1.41-8.34 0 0-9.71-1.38-27.73 4.18-11 2.74-23.55 9.71-25 9.71a34 34 0 0 1-1.38-9.71A211.29 211.29 0 0 1 271 329.91c9.73-2.78 19.41-2.78 29.14-4.17-1.41 0-1.41-2.75-1.41-4.17-4.15-8.29-11.07-15.21-18-22.16-2.78-5.57-5.57-12.47-5.57-15.22 2.79-2.81 5.57 1.37 9.71 1.37a49.92 49.92 0 0 1-2.75-15.27c-1.39-5.55-1.39-5.55-1.39-12.47 0-8.32 2.75-12.46 1.39-13.89s-7-4.1-8.34-4.1c-2.78-1.42-4.15-1.42-5.53-4.17-4.17-6.94-8.29-12.47-8.29-19.41s2.72-12.49 5.5-19.41c1.39-5.54 8.32-8.32 12.49-11.1s8.28-1.37 12.46-1.37c9.73 0 18 5.53 25 9.68a26.43 26.43 0 0 1 9.69 15.27h12.48c6.92 1.37 13.84 2.78 22.17 6.93 9.68-8.31 26.32-9.71 34.67-9.71 0-15.24 11.08-23.57 19.35-23.57 7-1.41 11.14-2.76 20.83 1.4 6.91 4.15 16.62 18 16.62 19.39 2.81 5.56 1.39 12.49 1.39 20.81a44.35 44.35 0 0 0-1.39 11.09c-1.34 5.53-8.3 9.7-12.46 11.08 0 9.71-2.79 15.25-4.16 23.55 0 4.18-1.38 8.34-2.77 12.47 4.14-1.38 5.57-4.13 9.68-4.13-2.75 18-6.91 15.21-11.06 23.56a48 48 0 0 1-8.3 16.64 42.35 42.35 0 0 1-6.95 5.53c-2.78 1.38 0 2.77 0 4.18zm-115-105.35c2.76-2.81 11.06-8.34 11.06-8.34 1.37 0 1.37-1.38 1.37-2.75-2.74-9.73-5.54-9.73-11.07-12.49a14.93 14.93 0 0 0-9.7-2.77c-5.57 1.37-15.22 4.17-18 12.48 0 1.37-1.4 6.93 2.8 12.44 2.74 5.56 8.29 9.73 11.08 12.5 4.08 0 5.46-6.94 12.42-11.07zm29.08 112.26c-2.75-1.37-5.54-1.37-8.29-1.37a49.7 49.7 0 0 0-9.73 1.37 51.09 51.09 0 0 0 2.78 8.3c4.14-1.37 5.55-2.74 8.32-4.12-.04 0 5.49-2.8 6.88-4.18zm11.08-74.85c0-2.78-2.74-5.58-6.91-7h-18c-7 0-12.49 0-19.45 1.37 2.79 5.58 9.73 11.12 12.48 13.9s5.56 5.55 11.11 5.55c5.55-1.39 5.55 0 8.3-1.39 0 2.77 1.39 6.92 0 9.68 0 1.43 1.39 12.49-4.15 13.87-4.15 1.39-9.7 4.18-12.48 8.31s-4.17 11.08 0 13.89c2.78 1.37 5.54-2.81 9.73-4.18s4.15-4.16 5.54-8.29c2.75-2.8 8.29-4.17 9.68-6.95v-4.16c1.41-12.49 1.41-15.25 2.8-23.58-.01-1.33 1.31-9.62 1.31-11.02zm8.31-33.28c0-2.75-5.5-1.39-8.31 0-2.74 0-6.91 2.78-11.08 5.53-4.14 4.17-6.92 5.56-6.92 9.71h6.92c6.93 0 8.34 2.8 11.08-1.37 4.14-5.53 8.27-8.34 8.27-13.87zm58.25-12.47c9.72 2.78 16.64 8.34 23.57 16.64a10.43 10.43 0 0 0 9.7-6.92c1.36-6.94 2.77-18-1.39-23.56-2.79-2.8-4.16-4.17-11.08-5.56a15.65 15.65 0 0 0-15.26 4.16c-2.78 4.15-6.96 9.71-5.58 15.24zm-29.12 18c2.76 0 2.76 5.56 2.76 8.34 7 0 13.9 1.37 16.63-1.36 15.27-7-8.26-12.51-11.08-12.51-6.94-1.39-20.76-5.56-15.25 0-.04 2.78 4.14 2.78 6.9 5.53zm29.12 102.6c-4.16-1.37-8.32-4.16-16.65-2.76-1.34 1.39-1.34 1.39-1.34 5.53 6.88 0 11.07 4.16 16.61 5.53-.04 0 1.34-6.92 1.34-8.3zm8.32-25c5.54 0-6.95-5.55-12.48-9.68a4.72 4.72 0 0 1-2.76-1.4c-2.81-2.78-4.19-8.31-9.73-9.69a1.34 1.34 0 0 1-1.34-1.43c0-4.1-1.41-20.74-1.41-20.74 2.75 5.53 8.29 5.53 11.08 5.53 5.56 0 9.69-1.41 12.45-5.53 0-1.41 1.41-4.15 2.76-4.15 2.83-1.41 5.56-2.8 7-5.58 1.41 0 2.78-2.8 2.78-2.8-12.51-1.37-38.82-1.37-38.82-1.37-4.18 1.37-8.3 5.56-8.3 7 0 0 2.73 15.25 2.73 16.62 0 9.72 1.39 9.72 1.39 19.41 4.18 2.78 5.55 2.78 8.37 5.56 1.34 2.75 2.72 5.53 4.16 8.3 5.51 2.79 12.45 5.53 16.63 9.71 1.25-.01 5.45-6.93 5.45-9.72zm9.71 120.63c-2.76-2.75 2.77-12.49-4.17-12.49-2.79-1.36-11.06-4.16-11.06-4.16-1.43 4.16-1.43 12.47 0 16.65 0 3.05 3.76 10.64 6.83 15a67.71 67.71 0 0 0 10.45-6.61 32.15 32.15 0 0 1-2.09-8.35zm-113.73-8.28s-1.37-7-2.78-9.71a18.42 18.42 0 0 0-6.92-8.33c-1.36 0-4.15-2.76-5.56-1.37 0 0-1.36 11.08-2.76 12.45 2.76 4.18 5.55 7 7 11.1s2.76 9.71 5.53 13.88c1.32-5.57 5.49-8.32 5.49-18.02zm88.28 29.3c-.81-3.53-1.72-7.43-2.35-9.93V420c-5.54 1.36-6.92 2.78-8.26 2.78-4.19 2.76-6.94 4.14-6.94 6.92 0 5.53 1.37 11.1 1.37 13.85 0 4.17 0 6.95 1.38 8.35 2 .66 3.4 1 4.9 1.5a67.36 67.36 0 0 0 9.9-1.3zm44.82-43.17c-2.81-1.37-2.81-1.37-6.92-1.37-1.43-1.39-4.18-1.39-5.57-1.39A91.4 91.4 0 0 0 436 420a13.55 13.55 0 0 0 4.71 5.3 66.83 66.83 0 0 0 6.07-10.14c-1.48-2.67-2.46-5.06-2.46-6.23z" fill="#fff"/></g></svg>