<?xml version="1.0" encoding="utf-8"?>
<!-- Generator: Adobe Illustrator 27.0.0, SVG Export Plug-In . SVG Version: 6.00 Build 0)  -->
<svg version="1.1" id="Layer_1" xmlns="http://www.w3.org/2000/svg" xmlns:xlink="http://www.w3.org/1999/xlink" x="0px" y="0px"
	 viewBox="0 0 720 412" style="enable-background:new 0 0 720 412;" xml:space="preserve">
<style type="text/css">
	.st0{fill-rule:evenodd;clip-rule:evenodd;fill:#FFFFFF;}
	.st1{fill:#FFFFFF;}
	.st2{fill:#FF6C37;}
</style>
<path class="st0" d="M399,271.7c0,0.2,0,0.4,0,0.7V290c0,0.9,0,1.4-0.3,1.7c-0.1,0.1-0.2,0.1-0.3,0.2s-0.2,0.1-0.3,0.1
	c-0.1,0-0.2,0-0.4,0l-0.7,0h-71c-14.1,0-21.2,0-25.6,4.4c-4.4,4.4-4.4,11.5-4.4,25.6v30c0,14.1,0,21.2,4.4,25.6
	c4.4,4.4,11.5,4.4,25.6,4.4h98V262l-22.2,7.2c-1.3,0.4-2,0.6-2.4,1.2c-0.1,0.1-0.1,0.2-0.2,0.4C399.1,271,399,271.3,399,271.7z
	 M397.5,361.5c-0.7,0.7-1.7,1.1-3.1,1.3c-1.4,0.2-3.1,0.2-5.5,0.2h-58c-3.9,0-6.2,0-7.7-0.8c-0.3-0.2-0.6-0.4-0.9-0.7
	c-0.5-0.5-0.9-1.1-1.1-1.9c-0.1-0.3-0.2-0.7-0.2-1.1c-0.2-1.4-0.2-3.1-0.2-5.5v-32c0-2.3,0-4,0.2-5.4c0.2-1.4,0.5-2.4,1.3-3.1
	c1.5-1.5,3.8-1.5,8.5-1.5h68v42c0,1.2,0,2.3,0,3.2c0,0.5,0,0.9-0.1,1.4C398.8,359.4,398.4,360.6,397.5,361.5z"/>
<path class="st0" d="M474,382c-14.1,0-21.2,0-25.6-4.4c-4.4-4.4-4.4-11.5-4.4-25.6v-10c0-6.6,0-9.9,2.1-12c2.1-2,5.3-2,11.9-2h87
	c0.3,0,0.6,0,0.8,0l0.3,0c0.1,0,0.2,0,0.3-0.1c0.1,0,0.1-0.1,0.2-0.1c0.1,0,0.1-0.1,0.1-0.1c0.3-0.3,0.3-0.8,0.3-1.7v-5
	c0-4.7,0-7.1-1.5-8.5c-1.5-1.5-3.8-1.5-8.5-1.5h-93v-19h98c14.1,0,21.2,0,25.6,4.4c4.4,4.4,4.4,11.5,4.4,25.6v60H474z M547,346
	h-69.5l-1.2,0c-0.9,0-1.6,0-2.2,0.1c-0.4,0-0.8,0.1-1.1,0.1c-0.6,0.1-1.1,0.3-1.6,0.5c-0.7,0.4-1.2,1-1.6,1.7
	c-0.7,1.2-0.7,2.8-0.7,6.1s0,4.9,0.7,6.1c0.2,0.3,0.4,0.6,0.6,0.8c0.3,0.3,0.7,0.6,1,0.8c0.6,0.4,1.3,0.5,2.3,0.6
	c0.3,0,0.7,0.1,1.1,0.1l0.9,0c0.6,0,1.2,0,1.9,0H537c4.7,0,7.1,0,8.5-1.5c0.6-0.6,1-1.4,1.2-2.4c0.3-1.4,0.3-3.4,0.3-6.2V346z"/>
<path class="st0" d="M616.9,403.1c-0.1,0.2-0.1,0.3-0.2,0.5c-0.4,0.5-1.1,0.7-2.4,1.2L592,412V292h98c14.1,0,21.2,0,25.6,4.4
	c4.4,4.4,4.4,11.5,4.4,25.6v30c0,14.1,0,21.2-4.4,25.6c-2.2,2.3-5.2,3.3-9.5,3.9c-2.5,0.3-5.4,0.4-8.8,0.5c-2.2,0-4.6,0-7.3,0h-71
	c-0.9,0-1.4,0-1.7,0.3c-0.3,0.3-0.3,0.8-0.3,1.7v17l0,0.7c0,0.4,0,0.8-0.1,1.1C616.9,402.9,616.9,403,616.9,403.1z M627,311
	c-0.9,0-1.8,0-2.6,0c-2.1,0-3.6,0.2-4.7,0.6c-0.2,0.1-0.5,0.2-0.7,0.4c-0.2,0.1-0.4,0.3-0.6,0.5c-0.4,0.4-0.7,0.9-0.9,1.5
	c-0.2,0.6-0.3,1.3-0.4,2.1c-0.1,1.3-0.1,2.9-0.1,4.9v42h68c4.7,0,7.1,0,8.5-1.5c0.6-0.6,1-1.4,1.2-2.5c0.3-1.4,0.3-3.4,0.3-6v-32
	c0-1.1,0-2.1,0-3c0-1.9-0.2-3.2-0.6-4.3c-0.2-0.5-0.5-0.9-0.8-1.3c-0.7-0.7-1.5-1-2.7-1.2c-1.4-0.2-3.3-0.2-5.8-0.2H627z"/>
<path class="st0" d="M246,292c14.1,0,21.2,0,25.6,4.4c4.4,4.4,4.4,11.5,4.4,25.6v10c0,6.6,0,9.9-2.1,12c-0.9,0.9-2,1.4-3.4,1.7
	c-2,0.4-4.7,0.4-8.5,0.4h-87c-0.9,0-1.4,0-1.7,0.3c-0.1,0.1-0.2,0.3-0.3,0.6c0,0.3,0,0.6,0,1.1v5c0,4.7,0,7.1,1.5,8.5
	c1.5,1.5,3.8,1.5,8.5,1.5h93v19h-98c-14.1,0-21.2,0-25.6-4.4c-4.4-4.4-4.4-11.5-4.4-25.6v-30c0-14.1,0-21.2,4.4-25.6
	c4.4-4.4,11.5-4.4,25.6-4.4H246z M173,328h69.5c3.3,0,4.9,0,6.1-0.7c0.3-0.2,0.6-0.4,0.8-0.6c0.3-0.3,0.6-0.6,0.8-1
	c0.7-1.2,0.7-2.8,0.7-6.1c0-1.7,0-3-0.1-4c-0.1-0.9-0.3-1.6-0.6-2.1c-0.1-0.2-0.3-0.4-0.5-0.6c-0.3-0.4-0.7-0.7-1.2-1
	c-0.5-0.3-1.2-0.5-2-0.6c-1-0.1-2.3-0.1-4.1-0.1H183c-4.7,0-7.1,0-8.5,1.5c-1.5,1.5-1.5,3.8-1.5,8.5V328z"/>
<path class="st1" d="M121.6,298.4c-6.4-6.4-16.8-6.4-37.6-6.4H0v90h25v-61c0-4.7,0-7.1,1.5-8.5c1.5-1.5,3.8-1.5,8.5-1.5h48
	c9.4,0,14.1,0,17.1,2.9c2.9,2.9,2.9,7.6,2.9,17.1v51h25v-46C128,315.3,128,304.9,121.6,298.4z"/>
<path class="st2" d="M370.1,70c4.8,0,7.2,0,8.5-1.5c1.3-1.5,1-3.9,0.3-8.7L371.6,8c-0.5-3.7-0.8-5.5-2-6.6c-1.3-1.1-3.1-1.1-6.8-1.1
	h-5.6c-3.7,0-5.5,0-6.8,1.1c-1.3,1.1-1.5,2.9-2,6.6L341,59.8c-0.7,4.7-1,7.1,0.3,8.7c1.3,1.5,3.7,1.5,8.5,1.5H370.1z"/>
<path class="st2" d="M325.5,87.7c1.5-4.6,2.2-6.8,1.2-8.6c-1-1.7-3.4-2.2-8.1-3l-51.5-9c-3.6-0.6-5.5-0.9-6.9-0.1
	c-1.4,0.9-2,2.6-3.1,6.1l-1.7,5.3c-1.2,3.5-1.7,5.3-1.1,6.8c0.6,1.5,2.3,2.3,5.6,4l46.9,23c4.3,2.1,6.5,3.2,8.3,2.4
	c1.9-0.8,2.6-3.1,4.1-7.6L325.5,87.7z"/>
<path class="st2" d="M328.5,135.6c-3.9-2.8-5.8-4.2-7.8-3.8c-2,0.5-3.1,2.6-5.3,6.8l-24.5,46.2c-1.7,3.3-2.6,4.9-2.2,6.5
	c0.4,1.6,1.9,2.7,4.9,4.9l4.5,3.3c3,2.2,4.5,3.3,6.1,3.1c1.7-0.1,2.9-1.5,5.5-4.1l36.4-37.5c3.3-3.4,5-5.2,4.8-7.2
	c-0.2-2-2.1-3.4-6-6.3L328.5,135.6z"/>
<path class="st2" d="M375,147.5c-3.9,2.8-5.8,4.2-6,6.3c-0.2,2,1.5,3.7,4.8,7.2l36.4,37.5c2.6,2.7,3.9,4,5.5,4.1
	c1.7,0.1,3.2-0.9,6.1-3.1l4.5-3.3c3-2.2,4.5-3.3,4.9-4.9c0.4-1.6-0.5-3.3-2.2-6.5l-24.4-46.2c-2.2-4.2-3.4-6.4-5.3-6.8
	c-2-0.5-3.9,1-7.8,3.8L375,147.5z"/>
<path class="st2" d="M400.8,107c1.5,4.6,2.2,6.8,4.1,7.6c1.9,0.8,4-0.3,8.3-2.4l46.9-23c3.3-1.6,5-2.4,5.6-4
	c0.6-1.5,0.1-3.3-1.1-6.8l-1.7-5.3c-1.1-3.5-1.7-5.3-3.1-6.1c-1.4-0.9-3.2-0.5-6.9,0.1l-51.5,9c-4.7,0.8-7.1,1.2-8.1,3
	c-1.1,1.7-0.3,4,1.2,8.6L400.8,107z"/>
</svg>
